<svg xmlns="http://www.w3.org/2000/svg" viewBox="0 0 960 460" role="img" aria-labelledby="title desc">
<title id="title">Hawaii Bin Cleaning truck-mounted bin cleaning unit</title>
<desc id="desc">Cartoon truck with wave graphics and two rear hydraulic lifters.</desc>
<defs><linearGradient id="g1" x1="0" x2="1"><stop offset="0" stop-color="#062a4f"/><stop offset="1" stop-color="#0b7fb4"/></linearGradient><linearGradient id="water" x1="0" x2="1"><stop offset="0" stop-color="#6bd9ff"/><stop offset="1" stop-color="#0ea5e9"/></linearGradient></defs>
<rect x="190" y="120" width="510" height="230" rx="22" fill="url(#g1)" stroke="#061b32" stroke-width="8"/>
<path d="M190 145 260 95h130l44 50" fill="#062a4f" stroke="#061b32" stroke-width="8"/>
<path d="M70 220c10-57 63-87 128-72v202H78c-25 0-46-22-43-47l8-63c2-11 12-20 27-20Z" fill="#f9fbff" stroke="#111827" stroke-width="8"/>
<path d="M100 206c12-30 42-48 82-42v62h-96c1-7 7-15 14-20Z" fill="#9bdff5" stroke="#111827" stroke-width="6" opacity=".75"/>
<path d="M85 299c38-26 79-42 116-48v39c-43 6-78 21-116 44Z" fill="#93d93d"/><path d="M193 277c165 14 278-15 374-100-28 86-135 158-366 139Z" fill="url(#water)" opacity=".95"/><path d="M330 280c118 10 200-13 260-70-24 58-110 102-260 91Z" fill="#effbff" opacity=".78"/><text x="240" y="200" fill="#fff" font-family="Arial Black, Impact, sans-serif" font-size="64" letter-spacing="2">HAWAII</text><text x="250" y="260" fill="#93d93d" font-family="Arial Black, Impact, sans-serif" font-size="46">BIN CLEANING</text><text x="265" y="292" fill="#bdeeff" font-family="Arial, sans-serif" font-weight="700" font-size="20">LOCAL • ECO-FRIENDLY • FAMILY-OWNED</text>
<rect x="702" y="170" width="145" height="180" rx="14" fill="#fff" stroke="#061b32" stroke-width="8"/><path d="M711 250c34-36 76-39 111-13 18 13 26 32 19 54-26-42-65-49-130-22Z" fill="url(#water)" opacity=".9"/>
<g stroke="#111827" stroke-width="6" stroke-linecap="round"><path d="M765 150h100l42 25v36h-120Z" fill="#cfd5db"/><path d="M803 173l54 141"/><path d="M877 177l-21 142"/></g><g stroke="#fb920b" stroke-width="18" stroke-linecap="round"><path d="M800 165l-30 95"/><path d="M868 166l-8 106"/><path d="M774 260h86"/></g><g stroke="#111827" stroke-width="6"><path d="M770 262h94"/><path d="M775 280h80"/></g><g stroke="#111827" stroke-width="6" stroke-linecap="round"><path d="M865 150h80l38 24v38h-105Z" fill="#cfd5db"/><path d="M897 174l33 141"/><path d="M960 176l-34 145"/></g><g stroke="#fb920b" stroke-width="18" stroke-linecap="round"><path d="M900 167l-24 96"/><path d="M961 168l-26 102"/><path d="M879 262h58"/></g>
<circle cx="170" cy="350" r="48" fill="#111827"/><circle cx="170" cy="350" r="26" fill="#e5e7eb"/><circle cx="510" cy="350" r="56" fill="#111827"/><circle cx="510" cy="350" r="30" fill="#e5e7eb"/><circle cx="585" cy="350" r="56" fill="#111827"/><circle cx="585" cy="350" r="30" fill="#e5e7eb"/>
<rect x="725" y="350" width="150" height="45" rx="8" fill="#111827"/><rect x="700" y="325" width="24" height="40" fill="#93d93d"/><rect x="230" y="325" width="24" height="40" fill="#93d93d"/><rect x="12" y="386" width="925" height="12" rx="6" fill="#93d93d"/>
</svg>