<svg xmlns="http://www.w3.org/2000/svg" viewBox="0 0 1440 220" preserveAspectRatio="none"><path fill="#062a4f" d="M0 146c120 34 238 43 354 27 146-21 254-98 415-94 179 4 263 103 423 111 105 5 187-24 248-56v86H0Z" opacity=".12"/><path fill="#0ea5e9" d="M0 172c158 18 285-2 382-61 119-72 222-79 311-23 67 42 116 72 219 62 151-16 191-105 330-92 67 6 130 34 198 83v79H0Z" opacity=".22"/><path fill="#93d93d" d="M0 194c95 13 180 4 254-28 84-36 158-44 221-25 93 29 158 86 283 80 189-9 279-115 430-104 96 7 178 46 252 91v12H0Z" opacity=".22"/></svg>